#!OML:ASF H:\MichaelJackson\Top Level 1\Subject 1\Session 1\male.ASF
:FULLY-SPECIFIED
:DEGREES
466
root 11.6816 15.7475 -28.8952 2.33577 43.6281 0.831184
lowerback 2.57677 -1.34815 4.20523
upperback -3.44024 -1.67394 -2.09133
thorax -5.20789 -1.03255 -4.4212
lowerneck -11.8166 -10.2586 5.59353
upperneck 2.43253 -14.6535 4.36539
head 2.72728 -6.99983 -0.375132
rclavicle -7.30037e-014 1.98785e-015
rhumerus 40.4706 -15.7728 -44.4274
rradius 120.37
rwrist -60.6739
rhand -22.376 -25.73
rfingers 7.12502
rthumb 4.04573 -55.6714
lclavicle -7.30037e-014 1.98785e-015
lhumerus -20.5572 -29.2324 53.2493
lradius 103.289
lwrist 29.4407
lhand -33.4069 -0.529726
lfingers 7.12502
lthumb -6.60701 29.3472
rfemur -56.2116 4.88689 17.4196
rtibia 86.4079
rfoot 15.412 9.12648
rtoes -8.1065
lfemur -0.605961 25.3048 -25.0285
ltibia 46.5389
lfoot -35.2551 5.79895
ltoes 8.88281
467
root 11.5625 15.7997 -28.9018 2.43005 41.8076 0.400089
lowerback 2.55819 -1.24393 4.75761
upperback -3.51655 -1.49477 -1.80599
thorax -5.26753 -0.962168 -4.44771
lowerneck -11.7603 -10.0428 5.74012
upperneck 2.51502 -14.3721 4.06051
head 2.71178 -6.87172 -0.47555
rclavicle -7.30534e-014 -1.96797e-014
rhumerus 40.3993 -15.5932 -44.2785
rradius 120.284
rwrist -60.5369
rhand -22.2726 -26.0635
rfingers 7.12502
rthumb 4.14549 -56.0029
lclavicle -7.30534e-014 -1.96797e-014
lhumerus -22.2427 -28.6669 53.1917
lradius 104.946
lwrist 29.7223
lhand -34.2305 -1.06087
lfingers 7.12502
lthumb -7.4021 28.7896
rfemur -56.568 6.10436 15.4723
rtibia 88.2816
rfoot 16.9488 8.19235
rtoes -3.2996
lfemur -1.4975 25.4497 -25.2336
ltibia 46.2317
lfoot -35.0387 6.6093
ltoes 9.36671
468
root 11.4443 15.8504 -28.9068 2.50929 39.999 -0.0766125
lowerback 2.59518 -1.12506 5.33046
upperback -3.6018 -1.29067 -1.5185
thorax -5.36516 -0.881688 -4.48436
lowerneck -11.7041 -9.83423 5.88816
upperneck 2.58824 -14.1005 3.77451
head 2.696 -6.74766 -0.571231
rclavicle 8.96892e-014 1.35174e-014
rhumerus 40.2832 -15.4375 -44.148
rradius 120.21
rwrist -60.4472
rhand -21.9754 -26.2133
rfingers 7.12502
rthumb 4.43248 -56.1469
lclavicle 8.96892e-014 1.35174e-014
lhumerus -24.122 -28.2758 53.2978
lradius 106.585
lwrist 29.8906
lhand -34.8446 -1.43462
lfingers 7.12502
lthumb -7.99482 28.3942
rfemur -56.8451 7.22938 13.6036
rtibia 89.7595
rfoot 18.3 6.89371
rtoes 1.69446
lfemur -2.38685 25.4586 -25.3573
ltibia 45.9593
lfoot -34.8356 7.37849
ltoes 9.83461
469
root 11.3271 15.8992 -28.9102 2.57187 38.1932 -0.575767
lowerback 2.68231 -0.991166 5.89694
upperback -3.65843 -1.06213 -1.22227
thorax -5.45668 -0.788312 -4.50953
lowerneck -11.7167 -9.63466 6.01203
upperneck 2.64817 -13.8436 3.52379
head 2.6941 -6.62857 -0.657707
rclavicle 7.90697e-014 1.19271e-014
rhumerus 40.1784 -15.327 -44.0438
rradius 120.152
rwrist -60.3953
rhand -21.5548 -26.1999
rfingers 7.12502
rthumb 4.83867 -56.1246
lclavicle 7.90697e-014 1.19271e-014
lhumerus -26.1405 -27.9919 53.589
lradius 108.17
lwrist 29.8977
lhand -35.208 -1.64994
lfingers 7.12502
lthumb -8.34548 28.1652
rfemur -57.0225 8.25626 11.8272
rtibia 90.8368
rfoot 19.4329 5.25123
rtoes 6.52207
lfemur -3.22555 25.3368 -25.4016
ltibia 45.6924
lfoot -34.6618 8.08989
ltoes 10.3463
470
root 11.2125 15.9464 -28.9123 2.63061 36.3835 -1.07663
lowerback 2.80711 -0.839246 6.4594
upperback -3.69966 -0.805417 -0.932186
thorax -5.5486 -0.681043 -4.54089
lowerneck -11.7231 -9.4496 6.12502
upperneck 2.67484 -13.6037 3.30768
head 2.68396 -6.51786 -0.731421
rclavicle 3.405e-014 1.04673e-014
rhumerus 40.0537 -15.234 -43.9681
rradius 120.126
rwrist -60.3813
rhand -21.1049 -26.0958
rfingers 7.12502
rthumb 5.2731 -56.0102
lclavicle 3.405e-014 1.04673e-014
lhumerus -28.3343 -27.8207 54.0926
lradius 109.682
lwrist 29.7378
lhand -35.3299 -1.7679
lfingers 7.12502
lthumb -8.46317 28.0425
rfemur -57.1041 9.18146 10.1337
rtibia 91.5162
rfoot 20.327 3.38537
rtoes 10.5769
lfemur -3.9887 25.0935 -25.3882
ltibia 45.3975
lfoot -34.5268 8.75807
ltoes 10.9377
471
root 11.1008 15.9912 -28.9125 2.69504 34.5584 -1.55112
lowerback 2.95756 -0.667958 6.99833
upperback -3.715 -0.520901 -0.652404
thorax -5.62213 -0.55844 -4.57216
lowerneck -11.7468 -9.27854 6.21263
upperneck 2.68602 -13.3812 3.12435
head 2.67654 -6.41484 -0.792842
rclavicle -7.53363e-014 -1.88845e-015
rhumerus 39.9312 -15.1532 -43.923
rradius 120.135
rwrist -60.3876
rhand -20.7413 -25.9923
rfingers 7.12502
rthumb 5.62414 -55.8977
lclavicle -7.53363e-014 -1.88845e-015
lhumerus -30.6562 -27.7075 54.8399
lradius 111.055
lwrist 29.3928
lhand -35.2049 -1.83414
lfingers 7.12502
lthumb -8.3425 27.9811
rfemur -57.079 10.016 8.51054
rtibia 91.806
rfoot 20.9545 1.25152
rtoes 14.2928
lfemur -4.63983 24.7535 -25.3327
ltibia 45.0477
lfoot -34.436 9.3989
ltoes 11.5468
472
root 10.9929 16.0331 -28.9099 2.77168 32.7077 -1.97466
lowerback 3.12292 -0.474333 7.49524
upperback -3.70004 -0.207043 -0.385239
thorax -5.66548 -0.418295 -4.59568
lowerneck -11.8025 -9.12064 6.27009
upperneck 2.70424 -13.1758 2.9542
head 2.68086 -6.31921 -0.848967
rclavicle 9.49818e-015 1.33186e-014
rhumerus 39.8197 -15.0541 -43.9043
rradius 120.178
rwrist -60.3819
rhand -20.4643 -25.913
rfingers 7.12502
rthumb 5.89158 -55.8111
lclavicle 9.49818e-015 1.33186e-014
lhumerus -33.0925 -27.6101 55.8573
lradius 112.248
lwrist 28.881
lhand -34.8382 -1.94485
lfingers 7.12502
lthumb -7.98862 27.8842
rfemur -56.9378 10.7748 6.94338
rtibia 91.7204
rfoot 21.2693 -0.988285
rtoes 17.4755
lfemur -5.15326 24.3297 -25.2596
ltibia 44.6225
lfoot -34.3942 9.99731
ltoes 12.2457
